<?xml version="1.0" encoding="UTF-8"?><svg id="Layer_2" xmlns="http://www.w3.org/2000/svg" viewBox="0 0 253.51 155.22"><defs><style>.cls-1{stroke-width:3px;}.cls-1,.cls-2{fill:none;stroke:#fff;stroke-miterlimit:10;}.cls-2{stroke-width:2px;}</style></defs><g id="Layer_2-2"><polygon class="cls-1" points="126.86 136.96 167.81 100.27 126.86 63.59 85.9 100.27 126.86 136.96"/><path class="cls-1" d="M125.99,2.92c-.15.25-28.18,47.92-28.18,47.92l29.61,49.29,28.17-48.61S125.99,2.92,125.99,2.92Z"/><path class="cls-1" d="M126.74,41.2c-.15.25-28.32,47.74-28.32,47.74l29.04,48.76,28.32-48.42s-29.03-48.08-29.03-48.08Z"/><polyline class="cls-2" points="67.73 154.43 43.49 133.83 68.84 114.13 93.09 134.73 67.73 154.43"/><path class="cls-2" d="M2.5,132.65c.17-.07,32.77-13.27,32.77-13.27l32.91,15.18-33.23,13.26s-32.45-15.16-32.45-15.16Z"/><path class="cls-2" d="M28.37,133.49c.17-.07,32.65-13.35,32.65-13.35l32.56,14.89-33.11,13.34s-32.1-14.88-32.1-14.88Z"/><polyline class="cls-2" points="185.77 154.24 210.01 133.64 184.66 113.94 160.42 134.54 185.77 154.24"/><path class="cls-2" d="M251,132.47c-.17-.07-32.77-13.27-32.77-13.27l-32.91,15.18,33.23,13.26s32.45-15.16,32.45-15.16Z"/><path class="cls-2" d="M225.14,133.31c-.17-.07-32.65-13.35-32.65-13.35l-32.56,14.89,33.11,13.34s32.1-14.88,32.1-14.88Z"/></g></svg>